<svg xmlns="http://www.w3.org/2000/svg" version="1.1" xmlns:xlink="http://www.w3.org/1999/xlink" width="191" height="191"><svg width="191" height="191" viewBox="0 0 191 191" fill="none" xmlns="http://www.w3.org/2000/svg">
<circle cx="95.5" cy="95.5" r="95.5" fill="#355F7E" fill-opacity="0.55"></circle>
<path d="M8.08301 110.556C16.1663 116.111 32.3333 127.223 48.5 127.223C64.6667 127.223 80.8333 116.111 97 115.186C113.167 114.26 129.333 123.518 145.5 126.296C161.667 129.074 177.834 125.37 185.917 123.519L186.952 123.091C175.114 162.382 138.65 191 95.5 191C46.0808 191 5.4286 153.463 0.500977 105.345L8.08301 110.556Z" fill="#4088BF"></path>
<path d="M97.4359 19.1208C98.0096 19.0242 99.5392 18.9758 102.025 18.9758C104.606 18.9758 107.665 19.4592 111.203 20.426C114.836 21.2961 118.325 22.7946 121.671 24.9215C125.113 26.9517 127.837 29.997 129.845 34.0574C131.948 38.0211 133 42.7583 133 48.2689C133 57.3565 129.511 64.7039 122.532 70.3112C115.553 75.9184 106.327 78.7221 94.8547 78.7221C94.8547 97.574 91.5564 107 84.9598 107C80.5621 107 78.3633 105.115 78.3633 101.344C78.3633 100.184 78.9369 98.5891 80.0841 96.5589C81.2314 94.5287 82.044 92.2085 82.522 89.5982C83 86.9879 83.3824 82.7825 83.6692 76.9819C79.7495 75.7251 77.7897 73.9849 77.7897 71.7613C77.7897 69.5378 78.7935 68.426 80.8011 68.426C81.8528 68.426 82.9044 68.571 83.956 68.861C85.1989 43.0483 86.0593 28.7885 86.5373 26.0816C81.088 27.435 76.5468 29.6586 72.914 32.7523C69.3767 35.8459 67.608 39.5196 67.608 43.7734C67.608 46.1903 67.0822 48.0755 66.0306 49.429C65.0746 50.7825 63.8317 51.4592 62.3021 51.4592C59.434 51.4592 58 49.8157 58 46.5287C58 40.0514 60.8203 34.4925 66.4608 29.852C72.1969 25.1148 79.3193 21.9245 87.8279 20.281C89.6444 14.0937 92.1778 11 95.4283 11C96.7667 11 97.4359 13.7069 97.4359 19.1208ZM122.245 52.3293C122.245 43.6284 119.759 37.006 114.788 32.4622C109.912 27.8218 103.985 25.3565 97.0057 25.0665C95.5717 42.1782 94.8547 58.2749 94.8547 73.3565C96.1931 73.5498 97.2447 73.6465 98.0096 73.6465C106.04 73.6465 112.063 71.568 116.078 67.4109C120.189 63.2538 122.245 58.2266 122.245 52.3293Z" fill="#FFC95B"></path>
</svg><style>@media (prefers-color-scheme: light) { :root { filter: none; } }
@media (prefers-color-scheme: dark) { :root { filter: none; } }
</style></svg>